<svg xmlns="http://www.w3.org/2000/svg" viewBox="0 0 512 512">
  <defs>
    <linearGradient id="sky" x1="0" y1="0" x2="0" y2="1">
      <stop offset="0" stop-color="#48c9ff"/>
      <stop offset="1" stop-color="#1f7be2"/>
    </linearGradient>
  </defs>
  <rect width="512" height="512" rx="112" fill="url(#sky)"/>
  <path d="M178 92v188c-17-9-40-8-59 4-29 18-40 53-25 78 15 24 50 29 79 11 21-13 33-35 31-55V160l150-32v120c-17-8-39-6-58 5-29 18-40 53-25 78 15 24 50 29 79 11 22-14 34-37 31-58V78L178 122z" fill="#ffd43d" stroke="#fff" stroke-width="14" stroke-linejoin="round"/>
  <g transform="translate(82 300)">
    <rect x="0" y="48" width="348" height="112" rx="48" fill="#1d9cf0" stroke="#fff" stroke-width="12"/>
    <rect x="88" y="0" width="172" height="88" rx="36" fill="#65cbff" stroke="#fff" stroke-width="12"/>
    <rect x="112" y="18" width="54" height="42" rx="14" fill="#e8faff"/>
    <rect x="182" y="18" width="54" height="42" rx="14" fill="#e8faff"/>
    <circle cx="140" cy="39" r="8" fill="#163b67"/>
    <circle cx="208" cy="39" r="8" fill="#163b67"/>
    <path d="M145 88c16 24 42 24 58 0" fill="none" stroke="#163b67" stroke-width="9" stroke-linecap="round"/>
    <circle cx="54" cy="104" r="15" fill="#fff173"/>
    <circle cx="294" cy="104" r="15" fill="#fff173"/>
    <rect x="38" y="140" width="62" height="44" rx="18" fill="#17324f" stroke="#fff" stroke-width="9"/>
    <rect x="248" y="140" width="62" height="44" rx="18" fill="#17324f" stroke="#fff" stroke-width="9"/>
  </g>
</svg>
